<svg xmlns="http://www.w3.org/2000/svg" xmlns:xlink="http://www.w3.org/1999/xlink" width="500" zoomAndPan="magnify" viewBox="0 0 375 374.999991" height="500" preserveAspectRatio="xMidYMid meet" version="1.0"><defs><clipPath id="97849368cd"><path d="M 7.730469 10.246094 L 366.980469 10.246094 L 366.980469 343 L 7.730469 343 Z M 7.730469 10.246094 " clip-rule="nonzero"/></clipPath></defs><g clip-path="url(#97849368cd)"><path fill="#cb6ce6" d="M 366.640625 14.523438 L 366.269531 13.59375 C 365.953125 13.210938 365.601562 12.859375 365.21875 12.542969 C 365 12.28125 364.753906 12.054688 364.476562 11.859375 C 364.351562 11.816406 364.226562 11.816406 364.105469 11.859375 C 363.390625 11.417969 362.621094 11.144531 361.789062 11.035156 C 360.957031 10.929688 360.140625 10.996094 359.339844 11.242188 L 11.9375 117.308594 C 11.394531 117.492188 10.882812 117.746094 10.410156 118.070312 C 9.9375 118.398438 9.519531 118.78125 9.152344 119.222656 C 8.785156 119.667969 8.488281 120.152344 8.257812 120.675781 C 8.023438 121.203125 7.871094 121.75 7.792969 122.320312 C 7.703125 122.921875 7.703125 123.523438 7.792969 124.125 C 7.878906 124.726562 8.054688 125.300781 8.3125 125.851562 C 8.570312 126.402344 8.902344 126.902344 9.3125 127.355469 C 9.71875 127.808594 10.179688 128.191406 10.699219 128.507812 L 123.015625 194.535156 L 120.105469 246.269531 C 120.105469 246.660156 120.140625 247.046875 120.214844 247.429688 C 120.285156 247.816406 120.394531 248.191406 120.539062 248.554688 C 120.683594 248.917969 120.859375 249.265625 121.070312 249.59375 C 121.277344 249.925781 121.515625 250.230469 121.785156 250.515625 C 122.054688 250.800781 122.34375 251.058594 122.664062 251.289062 C 122.980469 251.519531 123.3125 251.714844 123.667969 251.882812 C 124.023438 252.046875 124.390625 252.179688 124.769531 252.277344 C 125.148438 252.371094 125.53125 252.433594 125.921875 252.457031 L 171.097656 253.507812 L 241.207031 340.511719 C 241.785156 341.222656 242.484375 341.777344 243.304688 342.179688 C 244.128906 342.578125 244.996094 342.789062 245.910156 342.804688 L 246.902344 342.804688 C 247.960938 342.601562 248.90625 342.15625 249.730469 341.460938 C 250.558594 340.765625 251.160156 339.914062 251.542969 338.90625 L 366.023438 18.730469 C 366.253906 18.550781 366.460938 18.34375 366.640625 18.109375 C 366.734375 17.492188 366.734375 16.875 366.640625 16.253906 C 366.707031 15.800781 366.707031 15.347656 366.640625 14.894531 C 366.671875 14.769531 366.671875 14.644531 366.640625 14.523438 Z M 132.359375 240.761719 L 134.214844 208.023438 L 161.195312 241.503906 Z M 139.90625 193.234375 C 138.429688 190.785156 136.535156 188.722656 134.214844 187.046875 L 132.667969 186.179688 L 131.492188 185.808594 L 130.503906 185.191406 L 340.21875 28.816406 L 358.289062 23.308594 Z M 139.90625 193.234375 " fill-opacity="1" fill-rule="nonzero"/></g><path fill="#cb6ce6" d="M 67.753906 289.214844 L 69.054688 289.214844 C 69.722656 289.195312 70.375 289.070312 71.003906 288.839844 C 71.636719 288.609375 72.214844 288.285156 72.738281 287.863281 C 73.261719 287.445312 73.707031 286.957031 74.070312 286.390625 C 74.4375 285.828125 74.703125 285.222656 74.871094 284.574219 C 77.1875 274.617188 80.5625 265.035156 85 255.828125 C 89.4375 246.621094 94.828125 238.007812 101.171875 229.992188 C 101.40625 229.691406 101.609375 229.375 101.785156 229.035156 C 101.960938 228.695312 102.101562 228.34375 102.214844 227.980469 C 102.324219 227.617188 102.398438 227.246094 102.441406 226.867188 C 102.484375 226.488281 102.488281 226.109375 102.460938 225.726562 C 102.433594 225.347656 102.371094 224.972656 102.273438 224.605469 C 102.175781 224.238281 102.042969 223.878906 101.882812 223.535156 C 101.71875 223.191406 101.523438 222.867188 101.300781 222.558594 C 101.078125 222.25 100.828125 221.964844 100.550781 221.699219 C 100.238281 221.46875 99.910156 221.265625 99.558594 221.09375 C 99.207031 220.921875 98.847656 220.785156 98.46875 220.683594 C 98.09375 220.578125 97.710938 220.511719 97.324219 220.480469 C 96.933594 220.453125 96.546875 220.457031 96.160156 220.5 C 95.773438 220.542969 95.394531 220.621094 95.019531 220.734375 C 94.648438 220.851562 94.289062 221 93.945312 221.179688 C 93.601562 221.363281 93.277344 221.578125 92.972656 221.820312 C 92.667969 222.0625 92.390625 222.332031 92.136719 222.628906 C 85.199219 231.339844 79.308594 240.707031 74.464844 250.730469 C 69.621094 260.753906 65.9375 271.191406 63.421875 282.035156 C 63.34375 282.414062 63.304688 282.792969 63.296875 283.179688 C 63.292969 283.5625 63.320312 283.945312 63.386719 284.324219 C 63.453125 284.703125 63.554688 285.074219 63.6875 285.433594 C 63.820312 285.796875 63.988281 286.140625 64.1875 286.46875 C 64.386719 286.800781 64.613281 287.109375 64.871094 287.394531 C 65.125 287.683594 65.40625 287.941406 65.710938 288.175781 C 66.019531 288.414062 66.34375 288.617188 66.683594 288.789062 C 67.027344 288.964844 67.382812 289.105469 67.753906 289.214844 Z M 67.753906 289.214844 " fill-opacity="1" fill-rule="nonzero"/><path fill="#cb6ce6" d="M 59.460938 311.800781 L 59.460938 342.742188 C 59.335938 343.199219 59.265625 343.667969 59.25 344.140625 C 59.234375 344.617188 59.269531 345.089844 59.359375 345.554688 C 59.453125 346.023438 59.597656 346.472656 59.792969 346.90625 C 59.988281 347.339844 60.230469 347.746094 60.519531 348.121094 C 60.804688 348.5 61.132812 348.839844 61.5 349.140625 C 61.867188 349.445312 62.265625 349.699219 62.691406 349.910156 C 63.117188 350.121094 63.5625 350.28125 64.027344 350.390625 C 64.488281 350.496094 64.957031 350.550781 65.433594 350.550781 C 65.910156 350.550781 66.378906 350.496094 66.839844 350.390625 C 67.304688 350.28125 67.75 350.121094 68.175781 349.910156 C 68.601562 349.699219 69 349.445312 69.367188 349.140625 C 69.734375 348.839844 70.0625 348.5 70.351562 348.121094 C 70.636719 347.746094 70.878906 347.339844 71.074219 346.90625 C 71.269531 346.472656 71.414062 346.023438 71.507812 345.554688 C 71.597656 345.089844 71.636719 344.617188 71.617188 344.140625 C 71.601562 343.667969 71.53125 343.199219 71.40625 342.742188 L 71.40625 311.800781 C 71.226562 311.144531 70.949219 310.535156 70.570312 309.972656 C 70.191406 309.40625 69.730469 308.917969 69.191406 308.507812 C 68.652344 308.09375 68.0625 307.78125 67.417969 307.5625 C 66.773438 307.34375 66.113281 307.234375 65.433594 307.234375 C 64.753906 307.234375 64.09375 307.34375 63.449219 307.5625 C 62.804688 307.78125 62.214844 308.09375 61.675781 308.507812 C 61.136719 308.917969 60.675781 309.40625 60.296875 309.972656 C 59.917969 310.535156 59.640625 311.144531 59.460938 311.800781 Z M 59.460938 311.800781 " fill-opacity="1" fill-rule="nonzero"/></svg>